<svg xmlns="http://www.w3.org/2000/svg" width="885" height="249" xmlns:v="https://vecta.io/nano"><style><![CDATA[.B{fill:rgb(3.921569%,40.784314%,35.294119%)}.C{fill:rgb(74.509805%,58.823532%,36.078432%)}]]></style><path d="M141.043 21.512h2.77a636.99 636.99 0 0 1 29.797.664l1.816.082 8.84.43.352.02c6.605.352 14.359.934 19.602 5.441l.414.34c6.734 5.703 6.816 16.609 7.504 24.742.5 6.09.805 12.191 1.031 18.297l.012.406.16 4.66.063 1.754c.184 4.988.164 9.98.164 14.973l.004 2.574c.016 6.004-.043 11.992-.355 17.988l-.035.754-.254 4.285-.043.625c-.863 13.242-.863 13.242-2.078 17.5l-.23.875c-.723 2.672-1.758 4.98-3.574 7.082l-.57.688c-4.469 5.273-11.687 5.883-18.117 6.438-2.977.238-5.961.352-8.941.492l-1.918.09-26.266 1.051-1.371.043c-7.625.254-15.254.324-22.883.332l-2.094.004c-4.902.008-9.805-.027-14.707-.195l-.594-.02c-27.437-.953-27.437-.953-33.539-7.391-2.391-2.738-3.648-6.145-4.437-9.648l-.098-.414c-.711-3.336-.937-6.781-1.238-10.172l-.062-.699c-.594-6.598-1.043-13.195-1.344-19.812l-.016-.324-.195-4.77-.012-.324c-.187-4.973-.184-9.945-.18-14.922v-.992c0-6.605.031-13.199.352-19.793l.035-.723.277-5.594.02-.379.547-8.457.031-.355c.609-7.562 2.027-15.562 7.926-20.848a11.53 11.53 0 0 1 1.609-1.125l.262-.16c4.023-2.437 8.73-3.289 13.324-3.891l.566-.074c4.703-.578 9.484-.645 14.219-.82l2.125-.082 7.902-.281.336-.012c7.699-.25 15.391-.363 23.094-.352zm40.039 8.73l-.355.109c-2.449.781-4.617 2.121-6.715 3.59l-.258.18a121.38 121.38 0 0 0-6.711 5.078l-1.055.844-1.727 1.398-.332.27-.336.273-2.145 1.707a57.24 57.24 0 0 0-2.141 1.75c-.789.676-1.598 1.328-2.418 1.969-.723.563-1.434 1.141-2.141 1.719a76.23 76.23 0 0 1-2.887 2.25c-.828.613-1.645 1.246-2.457 1.883-1.102.863-2.219 1.691-3.367 2.5l-.914.648c-1.605 1.145-3.234 2.246-4.887 3.328l-.742.484c-8.117 5.316-16.098 9.836-25.418 12.645v-.324l.348-.125c.484-.207.879-.457 1.313-.75l.496-.34.527-.363.543-.371c5.07-3.102 5.07-3.102 8.664-7.539-.141-.348-.141-.348-.32-.645l-.414.07c-5.961.98-11.832 1.234-17.871 1.293-10.094.07-10.094.07-19.152 4.105l-.375.25-.27.234v.48h9.16c-.543.906-.543.906-1.047 1.324l-.336.281-.355.285-.367.301c-3.023 2.422-3.023 2.422-4.48 2.473-1.133-.406-2.094-1.332-3-2.098-.707-.59-1.062-.695-1.984-.637-1.984.496-4.355 1.551-5.621 3.219-.391.66-.437 1.344-.32 2.09.453 1.555 1.184 3.398 2.41 4.504l.168-.262.242-.352.23-.344c1.273-1.305 3.738-1.141 5.441-1.172h2.855c15.02.051 31.492.711 45.781 7.258l1.105.5c4.043 1.816 7.91 4.27 11.336 7.078l.254.207c2.309 1.902 4.578 3.926 6.496 6.23l.199.234c3.301 3.934 5.742 8.305 7.512 13.113l.148.402c.52 1.41.918 2.832 1.258 4.293l.098.418c.508 2.301.645 4.543.637 6.891l-.004.434c-.008 2.105-.066 4.16-.531 6.223l-.094.441c-1.187 5.25-3.465 9.977-6.609 14.32-.379.438-.379.438-.363.68 6.395.418 13.75-2.258 18.797-6.113l.434-.324c3.457-2.711 5.512-5.914 7.441-9.809l.223-.445c6.93-13.918 11.016-29.43 14.559-50.223l.055-.375c.527-3.547.902-7.113 1.262-10.684l.059-.613c2.109-17.945 2.109-17.945-3.918-34.363-2.168-2.598-5.301-4.48-8.699-4.848-.484-.023-.961-.031-1.441-.027l-.523.004c-1.727.035-3.312.367-4.949.883zm-94.961 4.02c-3.227 4.352-3.867 10.074-3.887 15.348l-.004.559-.004 1.797v.621a126.96 126.96 0 0 0 .52 11.434l.055.582.109 1.188.441-.383.309-.266.816-.699c6.262-5.348 14.039-5.23 21.836-5.383 9.313-.184 18.605-.621 27.852-1.797-.687-.977-1.457-1.824-2.309-2.664l-.352-.348a38.61 38.61 0 0 0-2.031-1.883c-.387-.336-.766-.684-1.145-1.035-.715-.656-1.453-1.273-2.207-1.887-.531-.434-1.051-.883-1.566-1.332a64.67 64.67 0 0 0-2.543-2.074l-1.773-1.426c-1.461-1.203-2.969-2.34-4.492-3.473l-1.375-1.035a165.29 165.29 0 0 0-6.687-4.801l-.75-.512c-6.223-4.242-14.937-7.59-20.812-.531zm1.699 49.691l-.355.023c-1.187.008-1.187.008-2.309.309.074 1.711.422 3.344.785 5.008l.098.445c2.699 12.434 6.246 25.629 11.914 37.055l.652 1.344c2.637 5.465 5.801 10.934 10.652 14.699l.254.203c3.945 3.168 8.461 4.707 13.434 5.246l1.082.125c2.672.301 5.313.41 7.996.41h.484c7.508-.016 14.707-.777 20.293-6.305l.418-.406c4.609-4.75 5.918-12.039 5.91-18.41-.105-6.914-2.824-14.488-7.453-19.629l-.469-.531c-.812-.906-1.648-1.746-2.582-2.523l-.441-.395c-3.836-3.395-8.387-5.727-13.375-6.844l-.512-.121c-5.238-1.023-10.391.438-15.074 2.695 0-.617.059-.84.301-1.379.691-1.68.926-3.441.238-5.168-1.012-2.047-2.98-3.262-5.074-3.992-8.227-2.715-18.301-2.371-26.867-1.855zm0 0" class="B"/><path d="M231.371 140.426h585.18v5.789h-585.18zm0 0" class="C"/><path d="M265.113 60.32l.434.035.57.043.563.047 1.809.055.594.004 2.781-.184 1.156 2.453.176.375 2.254 4.832 5.68 11.961.266.547.137.285.805 1.68 4.219 8.59 1.094 2.188.844 1.695 1.129 2.258c.23.5.23.5.559.938l.238-.469.91-1.77.387-.758 1.918-3.699 3.063-6.004.758-1.523 3.652-7.492.348-.73 7.043-15.355.406.035 3.129.145.336.004 2.203-.105.566-.043.43-.035 1.316 10.766.328 2.855.938 8.117 2.477 20.578.051.391c.469 3.625.969 7.246 1.578 10.852.063.488.063.488.063 1.453h-13.176l-.371-5.531c-.414-5.883-.945-11.754-1.52-17.621l-.059-.609-.551-5.605-.098-.957-.23-2.262-.047-.434-.086-.797c-.094-.902-.109-1.793-.094-2.699h-.32l-.117.395c-.246.688-.555 1.328-.875 1.98l-.203.406-.422.863-1.105 2.254-.219.445-1.539 3.188-1.793 3.742-1.277 2.652-.246.512-3.102 6.535-2.539 5.305-2.422 5.141c-.477 1.043-.977 2.074-1.492 3.098h-3.215c-1.672-3.125-3.199-6.312-4.68-9.531l-3.633-7.566-2.09-4.352-3.734-7.758-1.59-3.297-.148-.309-.691-1.449-.242-.508-.215-.445c-.141-.324-.141-.324-.328-.496-1.242 9.703-2 19.422-2.68 29.18l-.074 1.02-.133 1.914-.059.863-.027.391-.027.367-.02.313c-.051.555-.125 1.109-.195 1.664h-7.711l1.031-5.992c2.234-12.789 4.164-25.621 7.16-49.02zm161.641 0l.77-.004h.434a14.26 14.26 0 0 1 1.355.082c.934.086 1.863.105 2.805.105h.508l1.055-.004 1.586.004c1.574 0 3.141-.016 4.715-.102 1.902-.105 3.809-.117 5.715-.121l1.801-.012c4.664-.02 9.762.551 13.32 3.91l.344.324c2.348 2.422 2.809 5.578 2.785 8.809-.086 3.465-1.539 6.289-4.031 8.672-2.34 1.992-5.012 3.074-7.934 3.91l.441.113c3.301.859 6.324 1.875 8.879 4.23l.336.293c1.656 1.523 2.762 3.504 3.359 5.66l.117.414c.898 3.879.008 8.324-2.031 11.695-.477.738-1.035 1.398-1.621 2.043l-.285.32c-1.723 1.832-4.09 3.047-6.473 3.754l-.371.109c-3.223.887-6.543.871-9.855.852l-1.879-.004-3.535-.008-4.031-.012-8.277-.023.027-.531.102-2.031.043-.863.148-3.168.023-.5c.164-3.633.164-7.266.164-10.902v-1.547l.004-5.441.004-4.992.004-4.352v-2.57c.012-4.918-.125-9.82-.359-14.734l-.023-.492zm13.016 4.824c-.965 3.512-.34 7.938-.332 11.555v2.574l.008 5.012 2.016.035.68.016c2.789.066 5.012-.648 7.063-2.57 2.18-2.215 2.816-4.949 2.816-7.969-.027-2.418-.602-4.766-2.289-6.559-1.992-1.875-4.219-2.312-6.859-2.285h-.582c-.863.008-1.672.035-2.52.191zm-.324 23.969l-.008 7.434-.004 3.453v3.012l-.004 1.59c-.094 3.043-.094 3.043.18 6.066.719.359 1.695.203 2.496.207l.719.012c2.223.043 4.145-.246 5.941-1.668l.477-.371c1.988-1.672 3.031-4.531 3.297-7.043.297-3.512-.129-7.277-2.437-10.078-1.547-1.645-3.699-2.562-5.949-2.633l-.656.004h-.352l-1.105.004-.754.004zM775.098 60.32l.285.016.371.023.371.02c1.898.109 3.801.121 5.703.121h1.574l.34.004c.797-.004 1.586-.051 2.379-.102 1.285-.086 2.563-.113 3.848-.117h.344l1.797-.004 1.457-.008c5.723-.043 11.234.043 15.625 4.242 2.527 2.656 3.406 6.102 3.367 9.676-.141 3.566-1.156 6.738-3.559 9.453l-.258.297c-2.207 2.387-5.391 3.602-8.418 4.527 2.73 4.77 5.559 9.469 8.57 14.07l.824 1.266 3.184 4.875.582.891 1.691 2.578.844 1.281.313.473.281.43.25.375c.172.301.172.301.172.625h-14.621l-2.41-4.344-1.668-2.922-1.527-2.668-.164-.289-2.562-4.551-2.254-3.91a115.55 115.55 0 0 1-2.109-3.789l-.641-1.172-.211-.383-.207-.352-.18-.312c-.262-.305-.461-.344-.852-.402l.016.402.055 2 .012.391.117 5.336.34 12 .02.434.043.773c.063 1.254.043 2.492.043 3.758h-13.176l.246-6.02c.301-6.652.285-13.305.277-19.961v-3.348c.008-6.852-.004-13.695-.32-20.543l-.133-3.293-.02-.559zm12.855 4.664c-.121 2.234-.191 4.469-.211 6.703l-.012.922-.02 1.914-.027 2.414-.055 9.602c1.699.848 4.773.07 6.461-.492 1.105-.422 1.98-.973 2.859-1.762l.336-.277c2.004-1.797 2.676-4.695 2.879-7.281.152-3.141.031-6.559-1.93-9.168-1.891-2.047-4.578-2.418-7.23-2.574a54.91 54.91 0 0 0-2.406-.012l-.367.008zM542.762 60.32l.441.035c1.082.082 2.156.152 3.242.145l.367.004c.598 0 1.156-.023 1.742-.133 1.465-.242 1.465-.242 2.031.125.559.492 1.016 1.059 1.461 1.656.238.316.5.613.766.91l.258.301 1.18 1.301 1.707 1.91c.465.527.941 1.043 1.418 1.559l1.203 1.344c.582.676 1.188 1.324 1.793 1.977a70.21 70.21 0 0 1 1.527 1.711 70.32 70.32 0 0 0 1.27 1.391l1.527 1.691a75.01 75.01 0 0 0 1.758 1.941l1.813 1.992 1.25 1.371 1.605 1.77 2.488 2.734 2.48 2.727 2.176 2.375 1.371 1.496 2.5 2.719 1.309 1.418.273.297.656.711.008-11.254.004-5.227.004-4.566.004-2.41c.004-4.68-.059-9.348-.34-14.02l.391.035c2.289.188 4.555.18 6.84-.035.016 1.91-.016 3.816-.109 5.727l-.059 1.285-.156 3.219-.316 7.141-.023.535c-.312 7.492-.367 14.98-.395 22.48l-.023 4.801-.043 9.824-2.777.125-.941.043c-2.535.156-2.535.156-3.359-.387-.574-.52-1.012-1.117-1.426-1.77-.223-.34-.477-.637-.75-.934l-.234-.273-.23-.262-1.797-2.09c-.66-.773-1.324-1.535-2.012-2.285a33.7 33.7 0 0 1-1.457-1.699c-.781-.973-1.637-1.875-2.492-2.781a46.69 46.69 0 0 1-1.379-1.539l-.988-1.109-1.266-1.426c-.555-.641-1.125-1.262-1.699-1.883l-1.211-1.355c-.543-.625-1.098-1.23-1.656-1.84l-1.398-1.539-2.266-2.488-.66-.723-4.672-5.059-1.781-1.922-2.32-2.496-.32-.34-.309-.332-.273-.289-.914-.93-.309-.305-.234-.234c-.184 2.746-.184 5.496-.184 8.25v1.961l.004 3.297v3.762l-.004 3.27v1.938c-.004 5.219.156 10.43.344 15.645h-7.551l.125-1.922 1-18.988.012-.332c.441-11.254.484-22.516-.012-33.77zm196.504-.484l.566.082c1.504.207 2.898.258 4.418.082l.422-.051.863-.113c.605 1.43 1.164 2.871 1.711 4.32l.258.688.543 1.445.852 2.266 2.32 6.195 7.203 18.574.492 1.238 3.496 8.609.148.352c1.441 3.469 2.918 6.918 4.578 10.289l.227.469.203.406a1.07 1.07 0 0 1 .141.645h-13.98l-3.898-11.469-.516-1.516-.152-.449c-.281-.836-.582-1.668-.895-2.492-1.02-.129-2.012-.184-3.039-.18l-.461-.004-1.492.004-1.047-.004-2.184.004c-.93 0-1.863 0-2.793-.004h-2.156-1.031l-1.437.004-.43-.004c-.766.004-1.492.055-2.246.184a193.78 193.78 0 0 0-3.465 9.781l-.168.512c-.551 1.691-1.09 3.379-1.555 5.094-.117.379-.117.379-.277.539-.246.016-.492.02-.738.02h-.48l-.52-.004h-.527l-1.68-.008h-1.137l-2.789-.008c.219-.687.477-1.344.773-2l.277-.625.148-.336c2.328-5.211 4.5-10.484 6.656-15.766l1.254-3.047.195-.477.762-1.844 6.777-16.73.918-2.281zm0 15.926c-1.801 4.242-3.535 8.5-5.16 12.816l-.43 1.145-.824 2.184-.129.34-.348.934-.199.527c-.148.348-.148.348-.141.551h14.301l-2.297-6.668-.172-.473-.18-.488-.187-.504-2.617-6.949-.336-.871-.465-1.199-.137-.359c-.207-.605-.207-.605-.676-.984zM501.309 60.32l1.914-.008.957-.008c1.102-.004 2.199.016 3.301.074 3 .148 5.996.125 8.996.121l2.457.004c3.309 0 6.609-.016 9.91-.148a73.58 73.58 0 0 1 3.473-.035l-.035.316c-.121 1.047-.148 2.078-.145 3.133v.465c0 1.063.066 2.105.18 3.164l-12.52-.664-.41-.023-5.066-.277c-.125 2.594-.199 5.191-.238 7.789l-.242 9.422 4.738-.141.359-.012L531.996 83l-.035.289c-.113 1.027-.152 2.039-.145 3.07v.465c.008 1.09.051 2.168.18 3.254l-1.445-.062-.492-.02-3.152-.156c-4.363-.238-8.691-.316-13.066-.406l.16 19.945c5.289-.121 10.523-.262 15.777-.809l.586-.062.512-.055c.48-.039.957-.047 1.441-.039l-.031.32a32.08 32.08 0 0 0-.148 3.41v1.43c.023.586.109 1.172.18 1.758h-31.008l.242-6.062c.293-6.621.289-13.242.281-19.867v-3.277c.008-6.832-.02-13.648-.32-20.473zm101.867 0l1.914-.008.957-.008a58.3 58.3 0 0 1 3.305.074c2.996.148 5.996.125 8.992.121l2.461.004c3.305 0 6.605-.016 9.91-.148 1.156-.047 2.313-.043 3.473-.035l-.082.508c-.121.977-.105 1.957-.102 2.941v1.637a24.35 24.35 0 0 0 .184 1.992l-8.805-.461-3.328-.195-.355-.02-5.508-.289c-.254 5.734-.406 11.469-.484 17.211l4.742-.141.355-.012L633.863 83l-.07.582-.09.773-.047.383c-.129 1.117-.184 2.227-.043 3.344l.043.359.047.359.047.375.113.902-1.434-.062-.492-.02-3.203-.156c-4.348-.23-8.668-.316-13.027-.406l.16 19.945c5.289-.121 10.523-.262 15.777-.809l.586-.062.512-.055c.484-.039.957-.047 1.445-.039l-.082.586c-.109 1.02-.105 2.031-.102 3.055v1.648c.023.547.105 1.086.184 1.629h-31.012c0-1.086.008-2.152.063-3.234l.043-.844.066-1.277c.352-6.832.34-13.668.34-20.508l.004-2.852c.016-7.805-.012-15.617-.465-23.41-.059-.965-.066-1.922-.051-2.887zM359.59 63.055c-.375 1.285-.781 2.559-1.191 3.828l-1.379 4.375h-1.445l-.242-.512c-1.301-2.715-2.789-4.68-5.703-5.762-2.508-.832-5.324-.746-7.742.344-1.504.82-2.602 1.98-3.344 3.516l-.164.336c-.66 1.602-.488 3.613.125 5.199.313.648.68 1.172 1.164 1.703l.309.352c2.422 2.574 5.848 4.043 8.984 5.547 4.609 2.203 4.609 2.203 6.613 3.754l.266.203c.52.398 1.016.813 1.504 1.246l.297.266c2.629 2.477 4.266 5.715 4.406 9.332l.023 1.691.004.324c.027 4.484-1.617 8.516-4.66 11.793-4.324 4.352-10.488 5.844-16.449 5.898-4.246-.008-9.566-.508-13.027-3.25l.262-1.125.086-.367.531-2.152a70.15 70.15 0 0 0 1.371-6.648h1.77l.207.613c.516 1.492 1.016 2.824 2.043 4.051l.238.332c1.453 1.875 3.73 2.801 5.977 3.305 2.324.277 4.754.258 6.957-.578l.375-.137c1.574-.672 2.762-2.047 3.484-3.562l.199-.418c.766-1.895.762-4.371 0-6.266-.32-.633-.687-1.156-1.164-1.684l-.336-.379c-2.633-2.816-6.508-4.402-9.953-6.008-4.676-2.187-8.668-5.172-10.809-10-1.531-4.258-1.141-9.477.715-13.566 2.051-4.297 5.656-6.883 9.969-8.523 6.27-2.129 14.43-1.141 19.73 2.93zm39.848 0a63.5 63.5 0 0 1-.922 2.926c-.59 1.746-1.117 3.512-1.648 5.277h-1.445l-.242-.512c-1.301-2.715-2.789-4.68-5.703-5.762-2.508-.832-5.324-.746-7.742.344-1.637.887-2.926 2.277-3.645 4-.465 1.57-.406 3.668.301 5.148a17.4 17.4 0 0 0 .738 1.125 2.45 2.45 0 0 1 .375.664c.219.379.422.445.816.621.184.16.363.324.539.492 2.578 2.277 5.949 3.691 9.039 5.141 4.977 2.34 9.48 5.586 11.438 10.922.504 1.621.578 3.23.574 4.922v.344c-.012 2.895-.512 5.355-1.828 7.938l-.262.516c-2.277 4.176-6.348 6.848-10.805 8.223-6.406 1.879-14.184 1.645-20.187-1.43a8.61 8.61 0 0 1-1.043-.711l.25-1.078.086-.359.582-2.418c.527-2.137 1.027-4.258 1.332-6.441h1.77l.203.613c.52 1.492 1.016 2.824 2.043 4.051l.242.332c1.453 1.875 3.73 2.801 5.977 3.305 2.324.277 4.754.258 6.957-.578l.375-.137c1.574-.672 2.762-2.047 3.484-3.562l.199-.418c.766-1.895.762-4.371 0-6.266-.32-.633-.687-1.156-1.164-1.684l-.312-.348c-2.078-2.215-4.957-3.621-7.668-4.914l-.395-.187-1.582-.746c-4.785-2.242-8.965-5.246-11.145-10.199-.672-1.879-.84-3.781-.82-5.762v-.34c.031-4.656 1.535-8.648 4.813-12.02 6.676-6.352 19.195-6.805 26.426-1.031zm272.348 0c-.32 1.293-.738 2.551-1.164 3.813l-1.406 4.391h-1.449l-.102-.289c-.895-2.418-2.488-4.566-4.879-5.664-2.668-.98-5.684-1.273-8.348-.113-1.91.98-3.297 2.379-4.012 4.438-.484 1.891-.207 3.813.73 5.508 2.262 3.504 6.762 5.375 10.414 7.008 4.996 2.234 9.902 5.527 11.977 10.82 1.457 4.313 1.086 9.449-.922 13.531-2.316 4.402-6.242 7.266-10.898 8.785-6.555 2.02-14.574 1.781-20.691-1.437-.719-.395-.719-.395-.902-.766a17.77 17.77 0 0 1 .27-1.113l.188-.703.102-.375c.648-2.414 1.195-4.824 1.621-7.289.066-.332.066-.332.227-.652h1.609l.191.523.289.766.172.457c.449 1.148 1.004 2.105 1.758 3.078l.305.41c1.484 1.742 4.027 2.906 6.281 3.129 3.105.203 6.16.148 8.629-1.98l.371-.43.273-.316c1.309-1.574 1.906-3.477 1.855-5.523-.219-2.344-1.125-4.109-2.891-5.641-2.695-2.195-5.926-3.715-9.066-5.148-4.574-2.094-8.957-5.25-10.898-10.074-1.445-4.512-1.199-9.715.93-13.973.59-1.133 1.281-2.113 2.121-3.078l.258-.328c2.695-3.344 7.27-5.09 11.426-5.551 5.426-.512 11.215.395 15.633 3.789zm6.906-2.734c2.211-.02 4.418-.016 6.625.055 4.398.145 8.801.129 13.203.125h2.289l13.574-.145c1.813-.059 3.629-.051 5.441-.035l-.035.355c-.199 2.246-.176 4.477.035 6.723l-4.277-.328c-2.328-.211-4.66-.375-6.996-.492l-.844-.043-2.02-.102-.02 12.953-.008 6.02c-.07 13.594-.07 13.594.461 27.172.055.926.047 1.824.047 2.754h-13.176c0-2.387 0-2.387.066-3.566l.039-.828.066-1.25c.301-5.652.336-11.309.332-16.965V71.887c.004-1.766-.059-3.531-.184-5.293-2.074-.023-4.129.043-6.203.188l-1.391.094c-1.578.109-3.152.234-4.727.422-.773.086-1.523.113-2.301.102l.07-.402c.371-2.297.285-4.379-.07-6.676zm-202.93 0l.773-.004h.434a12.44 12.44 0 0 1 1.266.082c1.258.113 2.516.105 3.777.102l1.246.004c1.262 0 2.508-.008 3.762-.148a16.07 16.07 0 0 1 1.301-.039l.441.004h.336l-.02.328c-.465 8.633-.535 17.246-.516 25.891v3.727c-.016 10.848-.016 10.848.371 21.688l.164 3.379h-13.336l.32-6.594c.164-3.805.188-7.598.188-11.402v-1.547l.004-5.441.004-4.992v-4.352l.004-2.57c.008-4.918-.129-9.82-.359-14.734l-.023-.492zm0 0" class="B"/><path d="M283.27 175.813l.48.266c3.988 2.371 6.363 6.457 7.555 10.832a15.41 15.41 0 0 1 .32 1.93l.055.449c.496 4.652-.5 9.738-3.426 13.48l-.324.387-.344.414a17.83 17.83 0 0 1-12.187 6.18c-5.324.262-10.344-.805-14.414-4.426-3.574-3.266-5.602-7.672-5.852-12.52-.176-5.383 1.316-10.148 4.898-14.207 5.98-6.312 15.902-6.852 23.238-2.785zm-17.727 7.543c-2.371 2.977-3.219 6.438-2.797 10.211.48 3.074 2.004 5.496 4.355 7.48 2.293 1.668 5.188 2.305 7.98 1.902 2.883-.516 5.293-1.918 7.043-4.277 1.863-2.871 2.535-6.242 1.918-9.609-.418-1.871-1.098-3.492-2.219-5.047l-.246-.344c-1.746-2.191-4.445-3.309-7.145-3.68-3.262-.297-6.66.938-8.891 3.363zm272.27-5.863l.77.734.383.355c3.34 3.207 4.887 7.777 4.988 12.332.043 5.332-1.477 9.988-5.187 13.891-3.918 3.742-8.812 5.039-14.094 4.98-4.035-.098-8.125-1.508-11.152-4.215l-.398-.328c-3.402-2.891-5.219-7.199-5.707-11.574-.047-.711-.055-1.422-.051-2.133l.004-.574c.066-5.02 2-9.496 5.563-13.02 2.59-2.461 6.066-4.016 9.586-4.543l.348-.055c5.301-.672 10.891.563 14.949 4.148zm-20.133 5.992c-2.43 2.953-2.961 6.32-2.715 10.023.328 2.758 1.723 5.297 3.797 7.125 2.379 1.832 5.113 2.594 8.094 2.363 2.105-.305 3.781-.953 5.461-2.25l.336-.25c2.129-1.703 3.379-4.48 3.723-7.141.355-3.309-.234-6.625-2.316-9.309-.355-.398-.719-.781-1.098-1.156l-.301-.312c-1.578-1.52-3.953-2.449-6.125-2.582l-.391-.027c-3.254-.109-6.227 1.164-8.465 3.516zm0 0" class="C"/><path d="M234.426 60.32l.957.059a94.47 94.47 0 0 0 12.219-.059 63.92 63.92 0 0 1-.066 3.965l-.02.426-.086 1.73c-.352 6.809-.336 13.633-.332 20.449v2.371c-.004 6.844 0 13.691.352 20.531l.066 1.324.039.797c.059 1.145.047 2.27.047 3.418h-13.176l.246-6.508c.27-6.523.285-13.043.277-19.57v-3.121c.008-6.762-.035-13.512-.32-20.266zm0 0" class="B"/><path d="M405.223 173.883c16.141 0 16.141 0 19.441 2.25l.32.215c1.781 1.355 2.762 3.574 3.055 5.738.156 2.68-.414 5.23-2.168 7.328-.512.539-1.07.953-1.687 1.355l.348.215c2.406 1.5 3.84 3.137 4.57 5.957.387 2.629-.004 5.457-1.543 7.664-2.242 2.969-5.082 3.828-8.68 4.504h-13.656zm7.23 6.273v7.879l2.402.043.746.016c1.648.016 2.922-.23 4.16-1.383.773-.898.996-1.898.949-3.062-.137-.965-.492-1.738-1.199-2.418-1.484-1.098-3.051-1.16-4.84-1.117zm0 13.832v8.848l2.621.039.816.02c1.719.02 3.371-.121 4.676-1.375.891-1.078 1.27-2.281 1.207-3.672-.168-1.293-.781-2.219-1.77-3.055-.465-.277-.93-.48-1.445-.645l-.262-.086c-.547-.105-1.086-.094-1.637-.09h-.324l-1.191.004zm179.797-20.105c17.918 0 17.918 0 22.977 4.504l.363.316c3.164 2.953 4.57 7.359 4.777 11.586.172 4.926-.867 9.813-4.227 13.563-3.234 3.453-7.598 4.75-12.16 5.258h-11.73zm7.23 6.273v22.68c5.402.012 5.402.012 9.961-2.414l.305-.242c2.039-1.832 2.938-4.859 3.09-7.504.105-2.539-.156-4.91-1.305-7.211l-.211-.422c-1.262-2.297-3.262-3.66-5.727-4.398-2.012-.547-4.035-.488-6.113-.488zm189.598-6.273c13.047 0 13.047 0 15.605.672l.402.105c3.969 1.078 7.652 3.504 9.734 7.125 2.445 4.523 3.082 10.449 1.668 15.418l-.098.324-.09.316a15.05 15.05 0 0 1-2.961 5.473l-.25.32c-2.609 3.23-6.852 4.746-10.836 5.313-4.371.438-8.785.16-13.176.16zm7.23 6.273v22.68c4.207 0 7.348-.043 10.477-2.898 1.855-1.922 2.766-4.766 2.859-7.398l.02-.48c.07-3.43-.781-6.582-3.156-9.117-2.883-2.703-6.465-2.785-10.199-2.785zm-670.66-6.273c16.23 0 16.23 0 19.852 3.266 1.934 1.988 2.734 4.531 2.703 7.258l.004.508a9.99 9.99 0 0 1-2.977 7.203c-.645.594-1.328 1.082-2.07 1.551l2.613 5.086.359.68 3.258 6.012.883 1.613.277.508.254.469.23.418c.16.332.16.332.16.656h-8.035l-4.945-10.035c-.41-.859-.836-1.715-1.273-2.562-.367-.719-.367-.719-.367-1.074h-3.695v13.672h-7.23zm7.23 6.273v9.168c3.684.191 3.684.191 6.703-1.383 1.078-1.164 1.262-2.297 1.227-3.859a3.88 3.88 0 0 0-1.504-2.801c-1.949-1.469-3.957-1.125-6.426-1.125zm0 0" class="C"/><path d="M141.738 101.445l1.422 1.34.457.43c4.816 4.66 7.465 11.25 7.613 17.914.074 6.051-1.434 12.973-5.66 17.527l-.215.238c-2.336 2.563-5.488 4.277-8.992 4.453-2.754.086-5.52.102-8.145-.832v-.32l.484-.074c1.863-.297 3.969-.73 5.301-2.18v-.48c-1.305-.066-2.512.047-3.797.25-2.867.449-2.867.449-3.918-.25.078-.687.477-.992.965-1.449a12.54 12.54 0 0 0 .645-.645v-.32c-1.16.02-2.043.383-3.078.867-1.687.785-3.547 1.129-5.363.566-1.312-.621-2.406-1.492-3.023-2.828-.211-.754-.152-1.531-.105-2.305.633.113 1.164.418 1.727.715 1.289.652 2.453 1.156 3.898.73.77-.328 1.512-.727 2.254-1.117 3.219-1.695 6.035-1.93 9.535-1.039 2.219.563 4.168.641 6.207-.527 2.637-1.687 4.199-3.879 5.102-6.875l.094-.32c.543-1.918.648-3.844.637-5.824v-.363c-.016-4.516-1.062-8.344-3.906-11.922l-.34-.437c-3.043-3.844-7.133-6.555-12.031-7.281-.559-.047-1.113-.062-1.676-.062l-.449.004c-1.613.027-3.07.426-4.242 1.605-.941 1.047-1.109 1.914-1.082 3.316.215 2.188 1.602 4.211 3.273 5.59 2.27 1.672 4.758 2.566 7.578 2.184 1.137-.223 2.098-.621 3.105-1.176a17.84 17.84 0 0 1 .723-.363l.32.16c-1.254 1.926-2.453 2.773-4.656 3.379-.93.18-1.867.309-2.805.434-3.348.461-6.098 1.758-8.191 4.469-.887 1.191-1.512 2.332-1.859 3.785l.48-.164a22.03 22.03 0 0 1 1.016-.027l.539-.008c.555.039.98.176 1.5.359 1.07.156 1.816-.098 2.73-.645l.32-.16c-.078.441-.172.844-.328 1.266-.234.781-.285 1.359.078 2.102.465.559.977 1.008 1.531 1.469.504.48.637.777.68 1.477l-.012.563-.008.57-.012.438-.32.16-.086-.293c-.293-1.051-.293-1.051-1.039-1.797-.262-.047-.523-.086-.785-.121-.484-.082-.742-.125-1.098-.473l-.453-.68c-.75-1.066-1.883-1.543-3.129-1.785-2.055-.195-3.863.73-5.461 1.93a11.85 11.85 0 0 1 .914-2.875l.184-.406c.664-1.437 1.441-2.812 2.223-4.187 2.098-3.691 2.363-6.398 1.258-10.445l-.426-1.512c-.547-2.086-.578-4.496.344-6.469 1.285-2.199 3-3.445 5.414-4.145 5.68-1.418 11.871 1.188 16.141 4.895zm0 0" class="B"/><path d="M752.602 173.883h7.23l.008 2.109.031 6.914.02 4.188.016 3.656.008 1.934.008 1.82.004.98c.02 2.086.359 4.012 1.816 5.586 1.707 1.582 3.609 1.863 5.852 1.816 1.664-.082 3.258-.734 4.41-1.957 1.57-1.973 1.695-4.23 1.699-6.668l.004-.672.012-1.805.008-1.891.02-3.574.023-4.07.043-8.367h7.23l.016 8.648.008 4.02.008 3.504.004 1.852c.02 5.16-.004 10.277-3.816 14.234-2.949 2.898-6.953 3.668-10.93 3.66-3.82-.059-7.477-1.164-10.223-3.906-2.824-2.957-3.562-6.84-3.543-10.793v-.699l.004-1.879.004-1.969.008-3.723.004-4.238zm-383.852 0h7.23l.008 2.094.031 6.867.016 4.16.016 3.629.008 1.918.012 1.813v.973c.023 2.215.453 4.242 1.98 5.91 1.402 1.25 3.07 1.652 4.898 1.641l.41-.004c1.781-.035 3.277-.555 4.637-1.746 1.695-1.809 1.852-4.199 1.855-6.547l.004-.68.008-1.836.012-1.918.02-3.633.02-4.137.047-8.504h7.23l.016 8.934.008 4.148.004 3.621.004 1.914.004 1.809.004.965c-.004 1.879-.16 3.77-.715 5.57l-.102.344c-.941 2.941-2.895 5.387-5.621 6.84-1.199.609-2.414 1.09-3.727 1.402l-.453.109c-4.125.805-8.828.246-12.398-2.039-2.867-2.02-4.496-4.871-5.207-8.27-.246-1.449-.281-2.863-.277-4.332v-.687l.004-1.863v-1.949l.004-3.684.004-4.199zm335.168 0h7.715l1.125 3.246 3.523 10.012 1.848 5.211.34.961.688 1.941 1.598 4.523.52 1.465 1.527 4.305.254.715.461 1.293.195.559.172.48c.121.355.121.355.121.516h-7.391l-1.133-3.309-.523-1.539-.605-1.766-.191-.559-.176-.516-.156-.457c-.109-.383-.109-.383-.109-.863h-11.891l-.16.965-.215.691-.133.387-.141.406-.148.43-.465 1.352-.465 1.348-.289.836-.133.391-.117.336-.625 1.867h-7.391l.809-2.57.18-.52.195-.551.203-.586.547-1.562.344-.98 3.043-8.598 2.672-7.535zm3.695 8.203l-1.375 4.219-.637 1.961-.617 1.891-.562 1.734-.187.582c-.191.641-.191.641-.316 1.676h7.875l-2.969-9.305-.227-.691-.316-.961-.18-.543c-.125-.426-.125-.426-.488-.562zm-554.008-8.203h7.875c.422 1.063.824 2.109 1.18 3.191l.152.453.488 1.477.348 1.051.918 2.766 1.625 4.902.18.535 3.145 9.301.801 2.383c.594-1.258 1.031-2.555 1.469-3.871l.242-.73.652-1.965.684-2.059 1.293-3.891 1.469-4.43 3.027-9.113h8.035c-.543 1.809-.543 1.809-.832 2.594l-.195.539-.211.57-.223.609-.594 1.633-.629 1.715-1.379 3.77-.527 1.43-1.957 5.34-1.25 3.402-3.52 9.578-.363.988-.504 1.363-.148.41c-.344.926-.344.926-.523 1.285h-7.871l-3.234-8.676-2.934-8.004-.164-.445-.164-.449-.34-.914-.172-.461-1.398-3.801-.219-.598-.883-2.398-2.062-5.562-.141-.375-.629-1.656-.211-.555-.18-.469c-.125-.383-.125-.383-.125-.863zm528.621.641l.445.246c2.355 1.398 3.887 3.488 4.859 6.027v.324l-1.863.867-.629.293-.914.426-.555.258-.539.246-.301.141c-.465.207-.793.344-1.305.344-.285-.426-.285-.426-.594-.988-.531-.914-1.051-1.547-1.977-2.07l-.492-.301c-1.082-.41-2.445-.359-3.535-.035-.945.438-1.484.941-1.879 1.926-.137 1.164-.066 1.941.602 2.914.879.934 1.91 1.516 3.043 2.082l.492.254c.957.484 1.918.949 2.895 1.395 2.145.992 3.957 2.145 5.621 3.832l.301.293c1.531 1.629 2.094 3.902 2.16 6.09-.137 3.117-1.164 5.762-3.426 7.934-2.969 2.434-6.734 3.063-10.48 2.699a11.89 11.89 0 0 1-7.836-4.504c-1.766-2.48-1.766-2.48-1.766-3.828 5.414-2.734 5.414-2.734 6.105-2.734.254.383.254.383.52.895.996 1.758 2.211 2.645 4.141 3.289 1.41.105 2.777.133 4.016-.645.664-.574 1.066-1.258 1.164-2.133.047-.988-.086-1.73-.684-2.531-1.422-1.562-3.328-2.402-5.199-3.289-3.648-1.727-7.043-3.566-8.617-7.488-.91-2.879-.641-5.871.719-8.551 1.285-2.34 3.406-3.715 5.914-4.473 3.125-.871 6.711-.805 9.594.801zm-368.59 0l.445.246c2.355 1.398 3.887 3.488 4.859 6.027v.324l-2.379 1.098-.805.375-1.164.535-.363.172c-.859.395-.859.395-1.395.395-.254-.391-.254-.391-.523-.906-.477-.852-.902-1.465-1.727-1.992l-.309-.199c-1.219-.664-2.719-.684-4.039-.301-.93.414-1.363.855-1.758 1.789-.281.848-.277 1.609.078 2.422.773 1.336 2.09 2.035 3.426 2.703l.488.254a93.23 93.23 0 0 0 3.086 1.488c1.988.922 3.734 2.027 5.293 3.59l.316.309c1.609 1.699 2.234 3.93 2.305 6.234-.137 3.117-1.164 5.762-3.426 7.934-2.969 2.438-6.734 3.063-10.48 2.699a11.86 11.86 0 0 1-7.836-4.504c-1.766-2.48-1.766-2.48-1.766-3.828 5.414-2.734 5.414-2.734 6.105-2.734.277.414.277.414.582.965.867 1.484 1.914 2.469 3.543 3.082 1.414.363 2.898.32 4.227-.305a3.19 3.19 0 0 0 1.449-1.973c.125-1.105.027-1.992-.645-2.895-1.469-1.648-3.574-2.527-5.531-3.449-3.488-1.645-6.805-3.555-8.285-7.328-.891-2.891-.645-5.863.719-8.551.969-1.766 2.426-3.016 4.262-3.836l.371-.184c3.285-1.492 7.727-1.41 10.875.344zm-226.07 0l.445.246c2.297 1.367 3.98 3.496 4.859 6.027v.324l-1.859.867-.633.293-.914.426-.551.258-.543.246-.301.141c-.465.207-.793.344-1.305.344-.23-.32-.23-.32-.461-.746-.832-1.43-1.637-2.262-3.234-2.793-1.332-.195-2.527-.129-3.703.563-.543.414-.828.879-1.078 1.508-.137 1.164-.066 1.941.602 2.914.879.934 1.91 1.512 3.043 2.082l.492.254c.953.484 1.914.941 2.883 1.387 2.027.93 3.898 2.078 5.473 3.676l.313.309c1.793 1.887 2.266 4.258 2.258 6.77-.156 2.727-1.156 5.363-3.168 7.254-2.984 2.496-6.539 3.141-10.328 2.883-2.957-.309-5.805-1.691-7.75-3.961-.934-1.187-2.211-2.84-2.211-4.406l1.816-.914.512-.258c3.109-1.562 3.109-1.562 3.777-1.562.254.383.254.383.523.895.992 1.758 2.207 2.645 4.137 3.289 1.41.105 2.777.133 4.016-.645.664-.574 1.066-1.258 1.164-2.133.051-1-.098-1.715-.684-2.531-.93-.973-1.949-1.621-3.152-2.211l-.977-.5-1.012-.508c-4.102-2.074-4.102-2.074-5.461-3.215l-.387-.309c-1.844-1.539-3.07-3.719-3.309-6.125-.172-2.902.391-5.707 2.219-8.043 3.543-3.672 10.043-4.566 14.488-2.094zm480.48 1.441c1.543 1.441 2.484 3.172 3.152 5.156l-2.367 1.109-.805.375-1.156.543-.363.172c-.844.387-.844.387-1.273.328-.449-.172-.551-.461-.773-.879-.66-1.164-1.574-2.113-2.871-2.555-1.391-.242-2.852-.23-4.047.582-.707.711-.977 1.395-1.035 2.383.027 1.113.547 1.844 1.328 2.594 1.652 1.316 3.699 2.184 5.598 3.07 3.465 1.621 6.363 3.5 7.805 7.184.879 2.68.359 5.922-.871 8.387-1.414 2.453-3.582 4.023-6.277 4.855-3.773.977-7.629.672-11.055-1.238-2.422-1.527-3.887-3.723-4.973-6.32.43-.504.969-.766 1.551-1.055l.316-.156.66-.332 1.004-.504.641-.324.301-.152c.598-.293 1.133-.457 1.797-.535l.16.336c.883 1.754 2.004 2.969 3.855 3.688 1.34.438 3.07.316 4.336-.281.668-.418 1.008-.91 1.336-1.629.238-1.074.207-1.965-.371-2.918-1.328-2.035-4.172-2.992-6.297-4.02-3.391-1.648-6.527-3.668-7.84-7.398-.793-2.449-.477-5.457.59-7.754 1.375-2.555 3.402-4.07 6.145-4.941 4.059-1.18 8.508-.488 11.801 2.23zm-227.898-2.082c15.59 0 15.59 0 18.961 2.41l.309.215c1.723 1.316 2.938 3.699 3.332 5.793.414 3.215.188 6.402-1.691 9.16-2.266 2.902-4.895 4.059-8.535 4.617h-5.145v13.031h-7.23zm7.23 6.273v9.648c3.887.141 3.887.141 6.988-1.68 1.055-1.145 1.137-2.352 1.102-3.848a4.23 4.23 0 0 0-.699-2.031l-.32-.512c-.793-.891-2.078-1.352-3.215-1.578zm-113.113-4.184l.641.645-.805 2.523-.273.859-.395 1.234-.125.391c-.293.906-.293.906-.652 1.266l-.422-.254c-3.418-2.016-7.02-3.102-10.969-2.102-2.863.863-4.969 2.793-6.371 5.395-1.59 3.309-1.559 6.984-.371 10.41 1.031 2.527 2.898 4.59 5.434 5.664 3.492 1.336 7.07.992 10.457-.469.887-.414 1.73-.918 2.566-1.434.438.438.559.945.742 1.52l.121.363.246.754.379 1.152.238.738.117.348c.199.625.316 1.09.082 1.719-3.457 2.906-8.676 3.344-12.969 3.023-3.719-.383-7.215-1.812-10.008-4.309l-.293-.227c-3.02-2.328-4.918-6.648-5.449-10.328l-.039-.383-.055-.414c-.547-4.941.531-10.074 3.637-14.023l.754-.844.219-.238c2.781-3.016 6.488-4.949 10.547-5.555l.348-.055c4.375-.555 8.926.25 12.668 2.629zm268.328.484c-.363 1.391-.793 2.762-1.234 4.129l-.203.629-.492 1.516c-.68 0-1.148-.348-1.727-.676-3.242-1.766-6.566-2.359-10.164-1.418-2.605.852-4.598 2.543-5.977 4.902-1.621 3.203-1.855 6.879-.754 10.281 1.086 2.734 2.863 5.004 5.605 6.188 3.559 1.387 7.082.934 10.527-.512.738-.355 1.43-.758 2.121-1.199l.367-.195c.32.16.32.16.535.719l.238.746.129.398.27.836.41 1.277.258.809.125.387c.285.902.285.902.285 1.262-.348.246-.687.469-1.055.684l-.328.195c-4.527 2.609-10.02 2.98-15.023 1.691-4.324-1.203-8.062-3.953-10.305-7.855-1.711-3.062-2.473-6.23-2.441-9.723v-.352c.031-5.098 1.93-9.609 5.563-13.223 5.906-5.605 16.73-6.641 23.27-1.496zm124.199-2.574h18.156v6.594h-10.926v7.559h9.32v6.438h-9.32v8.203h11.41v6.434h-18.641zm-526.852 0h18.156v6.594h-11.086v7.559h9.477v6.438h-9.477v8.203h11.406v6.434H99.941zm0 0" class="C"/><path d="M164.691 51.473l.16.32-.184.211-.941 1.078-.398.453c-3.824 4.391-7.156 9.766-6.832 15.793.492 4.859 2.969 9.18 5.344 13.352 6.637 11.691 9.672 24.051 8.316 37.477h-.324l-.051-.336c-1.84-11.937-6.426-23.371-12.801-33.602l-.27-.437c-1.742-2.797-3.617-5.469-5.605-8.098-4.969-6.59-4.969-6.59-4.57-9.48.813-3.57 4.535-6.355 7.23-8.527l.543-.441c1.473-1.199 2.992-2.332 4.527-3.453l1.961-1.441zm0 0" class="B"/><path d="M729.305 173.883h7.23v28.629h11.41v6.598h-18.641zm-293.715 0h7.23v28.629h11.41v6.598H435.59zm-194.094 0h7.23v35.227h-7.23zm-49.168 0h7.23v35.227h-7.23zm267.848 0h7.066v35.227h-7.066zm-76.988-9.027h.848l.488.004h.496l1.574.004 1.066.004 2.621.008c-.262.766-.684 1.383-1.141 2.043l-.242.359-.766 1.125-.516.754-1.16 1.699c-.223.328-.223.328-.48.848-.387.445-.437.473-.988.52-.254 0-.512-.008-.766-.016l-.406-.004-1.289-.031-.871-.012-2.141-.047 2.41-5.34.234-.516.219-.477.191-.426c.234-.477.234-.477.617-.5zm0 0" class="C"/></svg>