<svg xmlns="http://www.w3.org/2000/svg" width="885" height="249" fill="rgb(100%,100%,100%)" xmlns:v="https://vecta.io/nano"><path d="M141.289 21.516h1.352c9.164-.004 18.313.066 27.465.484l2.691.113 5.504.246c.137.004.273.012.418.02 2.953.133 5.906.297 8.852.539l.355.027c6.727.547 13.527 1.91 18.27 7.051 7.5 8.898 6.301 25.926 6.785 36.801l.043.938.176 4.492.035 1.02c.246 6.813.355 13.617.344 20.434v2.488c.012 5.914-.059 11.809-.363 17.715-.004.129-.012.254-.02.387l-.27 4.652-.043.625c-.863 13.234-.863 13.234-2.078 17.5l-.23.879c-1.27 4.707-4.043 8.516-8.234 11.055-6.703 3.813-15.871 3.277-23.297 3.629l-1.949.094-26.863 1.07-.473.016c-14.543.457-29.176.723-43.711-.016l-.523-.023c-23.855-1.199-23.855-1.199-29.363-7.051-1.738-1.973-2.883-4.195-3.734-6.676l-.148-.426c-1.047-3.207-1.422-6.594-1.742-9.941l-.121-1.23a449.03 449.03 0 0 1-1.621-23l-.074-1.605c-.617-12.992-.578-26.168.051-39.156l.035-.723.277-5.594c.004-.125.012-.25.02-.379l.547-8.457.031-.355c.527-6.535 1.57-13.793 6-18.914l.371-.496c3.852-4.215 9.801-5.602 15.211-6.422l.578-.09c5.246-.766 10.582-.832 15.875-1.023l1.297-.047 6.473-.227.445-.016 5.543-.184 1.531-.047c6.09-.207 12.188-.176 18.285-.176zm39.148 8.887a16.89 16.89 0 0 0-.543.164c-3.937 1.352-7.461 4.379-10.703 6.914l-.578.449-3.285 2.633-2.113 1.68a69.2 69.2 0 0 0-2.441 2.008 75.4 75.4 0 0 1-1.902 1.559l-1.367 1.109a126 126 0 0 1-3.227 2.555l-1.555 1.215a179.91 179.91 0 0 1-7.133 5.367l-.98.707c-1.887 1.355-3.836 2.625-5.789 3.891l-1.234.805c-7.461 4.875-14.961 8.801-23.508 11.41v-.324l.355-.129c.449-.191.816-.414 1.223-.695l.441-.301.461-.32.48-.332c5.406-3.25 5.406-3.25 8.93-8.031-.051-.109-.105-.215-.16-.324l-.371.059-4.199.594a27.62 27.62 0 0 1-.633.086c-4.57.594-9.203.578-13.809.625-6.777.074-13.652.281-19.23 4.59l.164.48h8.996c-.598.996-1.344 1.555-2.25 2.254l-.316.246-1.02.777-.324.25c-1.504 1.133-1.504 1.133-2.406 1.148-1.004-.289-1.754-.898-2.551-1.559-.09-.07-.18-.145-.27-.219a14.08 14.08 0 0 1-.523-.445c-.57-.465-1.012-.617-1.75-.57-1.418.219-2.805 1.016-4.035 1.727l-.301.172c-.863.523-1.445 1.203-1.766 2.172-.215 1.914.895 3.766 1.926 5.309.258.285.258.285.484.48.047-.086.098-.168.148-.258.668-1.031 1.398-1.395 2.582-1.672 1.074-.168 2.129-.187 3.219-.187h.57l1.844-.004h.641c10.934.012 22.051.672 32.77 2.926l.504.105c4.273.922 8.551 2.391 12.512 4.238l.832.379c6.848 3.148 13.699 7.867 18.422 13.824a34.39 34.39 0 0 0 .68.82c2.789 3.262 4.832 7.07 6.418 11.035l.156.383c.855 2.129 1.441 4.297 1.93 6.535l.09.379c.875 3.918.789 8.742-.09 12.648l-.094.441c-.734 3.238-1.875 6.285-3.441 9.211l-.18.348a38.4 38.4 0 0 1-2.988 4.77c-.379.43-.379.43-.363.672 7.012.352 14.828-2.641 20.129-7.164 3.039-2.762 4.902-5.723 6.703-9.402l.266-.543c4.461-9.191 7.684-19 10.176-28.895l.105-.414c3.766-14.984 6.277-30.773 3.27-63.766l-.234-.488c-1.617-3.168-4.469-5.43-7.801-6.59-3.391-1.082-6.637-.527-9.961.484zm-94.156 3.699c-1.98 2.301-2.852 5.211-3.402 8.141-.027.129-.051.262-.074.395-.551 3.113-.598 6.266-.59 9.418v.609c.004 3.801.195 7.57.531 11.355l.055.582.109 1.188.43-.371.313-.27a47.43 47.43 0 0 0 .836-.73c5.969-5.289 13.766-5.211 21.301-5.359 9.492-.184 18.945-.66 28.375-1.797-.707-1.012-1.512-1.879-2.391-2.742-.121-.125-.246-.246-.371-.371a39.41 39.41 0 0 0-2.094-1.945c-.387-.336-.762-.684-1.141-1.031a45.99 45.99 0 0 0-2.207-1.883c-.543-.445-1.074-.906-1.609-1.363-.891-.77-1.793-1.516-2.719-2.242l-.5-.395-1.75-1.375-.344-.27a235.48 235.48 0 0 0-10.848-7.992l-1.051-.738c-6.395-4.48-14.625-7.488-20.859-.812zm1.145 49.852l-.324.023c-1.043-.031-1.043-.031-1.945.309 0 1.582.383 3.133.727 4.668l.086.391c2.266 10.309 5.398 20.41 8.992 30.332l.121.332c3.773 10.414 9.344 21.285 19.73 26.242 3.102 1.426 6.34 1.852 9.711 2.219l.535.059c8.395.871 18.91 1.156 25.906-4.324.352-.285.695-.582 1.035-.883l.434-.387c1.867-1.77 3.18-3.875 4.227-6.207l.258-.566c2.383-5.516 2.848-12.109 1.508-17.934l-.09-.402c-1.148-4.945-3.059-9.816-6.496-13.59l-.492-.551c-2.465-2.75-5.324-4.988-8.508-6.852l-.289-.172c-2.629-1.555-5.551-2.504-8.547-3.043l-.512-.094c-5.234-.574-9.957.621-14.594 2.988l.199-.5c.805-2.051 1.539-4.055.645-6.207a16.18 16.18 0 0 0-.359-.691l-.148-.289c-1.262-2.109-4.141-3.016-6.379-3.578-3.91-.922-7.898-1.074-11.895-1.25l-1.703-.086c-3.934-.219-7.898-.215-11.832.043zm143.945 56.308h585.18v5.953h-585.18v-5.953zm33.742-79.942l.434.035.57.043.566.043 1.715.059.543.004 2.922-.184 1.156 2.453.176.375 2.313 4.961 2.324 4.902 1.457 3.098c2.605 5.688 5.441 11.277 8.234 16.875l.523 1.051.824 1.648.305.613.418.836.238.473c.156.34.156.34.348.516l.27-.527 1.016-1.984.434-.852 2.273-4.387c.906-1.715 1.773-3.449 2.637-5.18l.809-1.617 3.328-6.848.172-.359 1.031-2.195c.055-.109.105-.223.16-.336l6.188-13.516.449.035c1.027.074 2.051.148 3.086.145l.582.004c.625-.012 1.25-.059 1.871-.105l.613-.043.469-.035 1.316 10.766.328 2.855.938 8.117 2.402 20.051.145 1.125a248.78 248.78 0 0 0 1.316 8.984l.059.375.117.695c.113.703.129 1.313.129 2.043h-13.176l-.324-4.848-.219-3.148-.031-.41-.863-10.031-.043-.441-.906-9.383-.07-.699-.32-3.191-.109-1.113-.055-.492a24.08 24.08 0 0 1-.113-2.758h-.32l-.117.391c-.254.715-.578 1.375-.91 2.055l-.211.43-.449.91-1.16 2.363-.227.465-1.574 3.262-1.785 3.719-5.855 12.254-2.02 4.262-.195.41-2.848 5.996h-3.215c-1.406-2.633-2.695-5.309-3.961-8.012l-.477-1.012-.324-.695-2.754-5.738-2.258-4.762c-.711-1.547-1.449-3.078-2.215-4.598l-1.598-3.273-2.414-4.91-1.352-2.711-.445 3.598-.152 1.215c-.848 6.762-1.332 13.559-1.801 20.359l-.344 4.863-.113 1.676-.074 1.023-.031.465c-.008.145-.02.285-.031.434l-.023.371c-.051.57-.129 1.137-.199 1.707h-7.711l1.121-6.492c2.43-13.859 4.445-27.781 7.07-48.52zm161.641 0l2.656.078c1.414.113 2.832.105 4.254.102l1.398.004 4.473-.102 6.059-.121 1.898-.012c4.551-.02 9.66.469 13.164 3.75l.363.336c.754.766 1.297 1.578 1.785 2.527l.156.301c.84 1.734.988 3.551.969 5.453l.008.594c-.012 2.84-.953 5.211-2.801 7.355l-.25.324c-2.199 2.715-5.762 4.176-9.066 4.984l.613.145c3.711.879 6.789 2.09 9.508 4.844l.359.355c2.457 2.57 3.09 5.746 3.051 9.203-.105 3.734-1.379 7.129-3.891 9.902l-.258.305c-1.93 2.125-4.797 3.34-7.527 4.008l-.387.098c-2.93.66-5.875.621-8.859.609h-1.871l-3.527-.008-4.02-.008-8.258-.016.027-.531.102-2.031.043-.863.148-3.168.023-.5c.16-3.633.164-7.266.164-10.902v-1.547l.004-5.441.004-4.992.004-4.352v-2.566c.012-4.922-.125-9.824-.359-14.738l-.023-.492-.137-2.887zm13.016 4.824c-.965 3.512-.34 7.938-.332 11.555v2.574l.008 5.012 1.938.035.973.023c2.621.027 4.941-.695 6.871-2.52 2.227-2.379 2.859-5.316 2.793-8.473-.09-2.363-.75-4.527-2.406-6.27-1.617-1.453-3.437-2.117-5.594-2.117-.195 0-.391-.004-.594-.004l-.613.004c-.305 0-.305 0-.617-.004l-.594.004h-.539a6.87 6.87 0 0 0-1.293.18zm-.324 23.969l-.008 7.359-.004 3.422v2.984l-.004 1.574c-.008 3.109-.008 3.109.18 6.215.836.277 1.73.203 2.609.207.23 0 .465.004.695.012 2.582.051 4.676-.598 6.656-2.312 2.414-2.781 3.234-6.172 3.012-9.789-.234-2.906-.953-5.703-3.172-7.742-1.699-1.32-3.637-1.961-5.773-1.945h-.363l-1.145.004-.777.004-1.906.008zM775.098 60.32l.852-.004h.48a12.6 12.6 0 0 1 1.332.082c1.168.105 2.336.105 3.508.102l1.121.004h.738.324l2.336-.102 4.012-.117h.367l1.914-.004 1.555-.008c5.586-.039 11.172-.027 15.43 4.121 2.594 2.742 3.57 6.102 3.5 9.824-.207 4.051-1.488 7.488-4.488 10.34-2.234 1.93-4.969 3.051-7.754 3.91a262.48 262.48 0 0 0 7.391 12.227l.23.355 1.539 2.379.254.395 3.66 5.602 1.293 1.969.898 1.371.773 1.18.215.324c.457.703.457.703.457 1.063h-14.621l-2.41-4.344-1.715-2.934c-.609-1.043-1.184-2.105-1.758-3.168-.766-1.414-1.562-2.812-2.363-4.207L792.633 98l-.164-.285L789.816 93c-.445-.801-.898-1.586-1.402-2.352-.141-.25-.141-.25-.141-.57h-.645l.109 5.594.051 2.602.379 12.039.02.441.043.789c.059 1.27.043 2.516.043 3.789h-13.176l.246-6.02c.301-6.652.285-13.305.277-19.961v-3.348c.008-6.852-.004-13.695-.32-20.543l-.133-3.293-.02-.559-.051-1.289zm12.855 4.664a147.53 147.53 0 0 0-.211 6.703l-.012.922-.02 1.914-.027 2.414-.055 9.602c2.25.75 5.359.039 7.438-.895.703-.371 1.293-.828 1.883-1.359l.301-.254c2.129-1.941 2.797-4.891 2.93-7.668.098-2.937.063-6.5-1.977-8.828l-.289-.297-.25-.273c-1.227-1.207-3.078-1.609-4.73-1.82-.129-.016-.258-.035-.391-.055-1.285-.148-2.582-.121-3.875-.109h-.406l-.309.004zm0 0"/><path d="M542.762 60.32l.48.035 3.203.145.32.004a8.2 8.2 0 0 0 1.637-.141c1.563-.27 1.563-.27 2.207.148.605.531 1.102 1.145 1.582 1.785a15.52 15.52 0 0 0 .793.938l.254.293 1.172 1.297 1.707 1.91 1.418 1.559 1.203 1.348 1.793 1.973 1.527 1.711 1.27 1.391 1.527 1.691 1.758 1.941 1.813 1.992 1.25 1.375 1.605 1.77 2.266 2.484 1.328 1.453 1.117 1.219L578 90.852l2.172 2.355 1.883 2.063 1.402 1.531.27.293.648.703.008-11.254.004-5.227.004-4.566.004-2.41c.004-4.68-.059-9.348-.34-14.02l.438.035a42.87 42.87 0 0 0 6.793-.035 98.85 98.85 0 0 1-.109 5.578l-.062 1.305-.152 3.262-.316 7.227-.023.535c-.309 7.492-.367 14.98-.395 22.48l-.023 4.801-.043 9.824-2.777.125a25.29 25.29 0 0 0-.941.043c-2.527.156-2.527.156-3.355-.379-.566-.512-.988-1.102-1.398-1.742-.344-.508-.75-.957-1.156-1.414l-.27-.316-3.559-4.078a35.25 35.25 0 0 1-1.355-1.598c-.785-.977-1.645-1.883-2.504-2.793a46.69 46.69 0 0 1-1.379-1.539 66.71 66.71 0 0 0-.988-1.109l-1.266-1.426a85.88 85.88 0 0 0-1.699-1.883 57.51 57.51 0 0 1-1.211-1.355c-.539-.621-1.098-1.23-1.656-1.84l-1.398-1.535L560.984 90l-.664-.723-2.773-3.016-.949-1.035-4.52-4.84-3.051-3.34c-.176 2.813-.184 5.617-.184 8.43v1.961l.004 3.293v3.758l-.004 3.27v1.934c-.004 5.219.156 10.426.344 15.641h-7.551l.125-1.922 1-18.988.012-.332c.441-11.254.484-22.516-.012-33.77zm196.504-.484l.289.035 1.988.148h.426.434.43a20.71 20.71 0 0 0 2.703-.184l1.68 4.25.254.668.531 1.414.84 2.238 1.914 5.102c7.594 20.898 7.594 20.898 16.766 41.117.188.383.188.383.188.707h-13.98l-3.09-9.141-.703-2.105-.434-1.297-.582-1.723-.168-.512-.156-.457-.137-.395c-.164-.324-.164-.324-.504-.395-.707-.09-1.406-.086-2.121-.082-.246 0-.246 0-.496-.004l-1.621.004c-.375 0-.75-.004-1.125-.004l-2.359.004c-1.012 0-2.02 0-3.027-.004h-2.328-1.117l-1.559.004c-.152 0-.309 0-.465-.004-.145.004-.285.004-.43.004h-.375c-.352.02-.648.066-.98.18-.215.34-.215.34-.367.781l-.195.523-.211.586-.227.613c-1.523 4.164-2.941 8.383-4.125 12.656-.18.605-.18.605-.34.766-.246.016-.492.02-.738.02h-.48l-.52-.004h-.527l-1.68-.008h-1.137l-2.789-.008c.238-.77.543-1.496.871-2.23l.344-.773.184-.41c1.672-3.77 3.254-7.574 4.828-11.383l.785-1.902 4.793-11.672 1.148-2.805 5.734-14.254.176-.441 3.789-9.625zm0 15.926c-1.801 4.242-3.535 8.5-5.16 12.816l-.43 1.145-.824 2.184-.129.34-.348.93-.199.531c-.148.348-.148.348-.141.551h14.301c-.379-1.273-.379-1.273-.801-2.527l-.176-.496-.187-.52-.203-.562-.648-1.805-.113-.309-3.363-8.988-.187-.484-.523-1.336-.152-.398c-.215-.652-.215-.652-.715-1.07zM501.309 60.32l2.043-.008.691-.004 3.863.07 8.488.121 2.211.004 9.145-.129 4.566-.055-.035.316c-.121 1.047-.148 2.078-.145 3.133v.465c0 1.063.066 2.105.18 3.164l-2.437-.133-.391-.02-5.281-.293-.562-.031-2.75-.16-6.574-.328-.238 7.789-.242 9.422 5.18-.18 2.406-.086 10.57-.379-.035.32-.148 2.152v.438l.004.449v.465l.18 3.254-1.297-.062-.449-.02-2.949-.156c-4.496-.254-8.945-.32-13.461-.406l.16 19.945 10.145-.359 1.363-.09c1.566-.105 3.125-.23 4.684-.414.715-.082 1.406-.113 2.125-.102l-.035.32a33.49 33.49 0 0 0-.145 3.41v.5.492.434c.023.59.109 1.176.18 1.762h-31.008l.242-6.102c.285-6.645.289-13.281.281-19.93v-3.254c.008-6.805-.02-13.594-.32-20.395l-.203-5.332zm0 0"/><path d="M603.176 60.32l2.043-.008.691-.004 3.863.07 8.492.121 2.207.004 9.148-.129 4.566-.055-.125.953c-.051.453-.059.902-.059 1.359v.559.578.57.563.504a24.35 24.35 0 0 0 .184 1.992l-.445-.023-11.496-.621-2.062-.109-3.992-.211c-.254 5.734-.406 11.469-.484 17.211l5.18-.18 2.41-.086L633.863 83l-.074.633-.043.375-.094.766c-.156 1.367-.125 2.664.051 4.027l.047.375.113.902-1.375-.062c-.156-.004-.312-.012-.473-.02l-3.023-.156c-4.437-.25-8.828-.32-13.285-.406l.16 19.945 10.145-.359 1.367-.09a93.1 93.1 0 0 0 4.68-.414c.715-.082 1.406-.113 2.129-.102l-.082.586c-.109 1.02-.105 2.031-.102 3.055v.578.563.508c.023.543.105 1.086.184 1.629h-31.012c0-1.133 0-2.25.063-3.375l.043-.82.066-1.238c.363-6.832.34-13.672.34-20.508l.004-2.879c.016-7.77-.016-15.539-.465-23.301a35.75 35.75 0 0 1-.051-2.891zm68.609 2.735l-1.336 4.391-.266.875-.391 1.27-.121.395-.457 1.273h-1.449l-.137-.367c-.461-1.184-1.016-2.164-1.789-3.172l-.371-.512c-1.773-1.859-4.164-2.684-6.68-2.75-2.609-.031-4.809.574-6.758 2.402-1.375 1.555-1.855 3.125-1.816 5.152.141 1.918.973 3.551 2.375 4.859 2.809 2.402 6.145 4.016 9.492 5.527 4.664 2.102 9.156 5.176 11.262 10.02 1.559 4.215 1.434 9.195-.414 13.309-2.109 4.461-5.742 7.52-10.316 9.246-6.387 2.27-14.594 2.234-20.777-.703-1.395-.738-1.395-.738-1.707-1.191a7.35 7.35 0 0 1 .242-1.129l.094-.344.203-.73.516-1.914.105-.387c.434-1.641.734-3.305 1.023-4.977.066-.332.066-.332.227-.652h1.609l.191.523.289.766c.059.148.113.301.172.457 1.02 2.609 2.746 4.578 5.32 5.719 3.211 1.297 6.676 1.281 9.914.086 1.605-.707 2.855-2.094 3.555-3.691.781-2.262.918-4.418-.004-6.676-2.105-4.078-7.281-5.926-11.148-7.828-4.598-2.266-9.051-5.105-11.02-10.105-1.461-4.633-1.18-9.906 1.063-14.246 2.199-4.051 5.781-6.547 10.074-7.992 6.355-1.805 13.891-.937 19.23 3.098zm-312.195 0l-.922 2.926-1.648 5.277h-1.445l-.246-.52c-.848-1.766-.848-1.766-2.004-3.34l-.254-.293c-1.437-1.555-3.57-2.492-5.687-2.625-2.668-.094-5.016.195-7.113 1.992-1.395 1.324-2.195 2.699-2.273 4.637-.031 1.918.363 3.527 1.672 4.973l.297.344c2.25 2.426 5.559 3.91 8.492 5.324l.371.18 1.836.875c1.941.918 3.766 1.98 5.441 3.332l.285.227c3.035 2.465 5.098 5.578 5.609 9.504.055.75.07 1.496.066 2.25v.973c.008 3.781-1.266 7.578-3.762 10.449l-.332.402c-3.668 4.25-9.242 6.039-14.687 6.445-4.75.309-9.84-.125-14.121-2.363-.105-.055-.211-.105-.316-.164-.727-.398-.727-.398-.91-.941.047-.305.047-.305.137-.656l.102-.402.117-.434.117-.453.371-1.441c.57-2.187 1.082-4.348 1.406-6.586h1.77l.18.512c1.152 3.18 2.688 5.531 5.832 7.039 2.891 1.191 6.48 1.242 9.41.172 2.145-.918 3.379-2.422 4.238-4.566.594-1.934.555-4.398-.379-6.211a10.08 10.08 0 0 0-.746-1.012c-.219-.277-.219-.277-.371-.613-.215-.387-.414-.449-.812-.629a13.58 13.58 0 0 1-.551-.5c-2.309-2.047-5.437-3.336-8.195-4.641-2.566-1.215-4.848-2.484-7-4.348l-.297-.227c-2.594-2.012-4.273-5.391-4.777-8.562-.625-5.086.305-9.867 3.469-13.941 2.691-3.234 6.199-5.047 10.281-5.902l.547-.121c5.559-1 12.313.063 16.805 3.66zm0 0"/><path d="M399.438 63.055l-1.012 3.195-1.559 5.008h-1.445l-.246-.52c-.848-1.766-.848-1.766-2.004-3.34l-.254-.293c-1.437-1.555-3.574-2.492-5.687-2.625-2.668-.094-5.016.195-7.113 1.992-1.395 1.324-2.195 2.699-2.273 4.637-.031 1.918.363 3.527 1.672 4.973l.297.344c2.793 3.012 7.098 4.68 10.742 6.406 1.305.621 2.547 1.273 3.742 2.098l.289.199c3.645 2.582 6.242 5.688 7.164 10.117.168 1.051.18 2.094.168 3.156v.34c-.012 1.789-.16 3.457-.711 5.168l-.184.566c-1.586 4.445-4.789 7.723-8.996 9.77-6.125 2.84-14.266 3.047-20.609.852-1.184-.441-2.434-.965-3.473-1.695-.219-.66-.02-1.164.152-1.812l.215-.824.113-.434c.637-2.445 1.227-4.883 1.609-7.387h1.77l.203.613c.52 1.492 1.02 2.824 2.043 4.051l.23.309c1.574 2.02 4.207 3.066 6.68 3.391 2.984.18 5.887.043 8.352-1.852a7.68 7.68 0 0 0 2.465-5.168c.074-2.172-.148-4.023-1.656-5.687l-.336-.379c-2.598-2.777-6.34-4.305-9.727-5.895-4.703-2.211-8.965-5.199-11.035-10.152-.676-1.902-.812-3.805-.805-5.812v-.332c.023-4.352 1.297-8.105 4.227-11.367l.297-.34c6.461-6.906 19.465-6.902 26.695-1.27zm279.253-2.735l7.816.066c3.977.109 7.957.117 11.938.113l2.863.004 11.664-.129a190.79 190.79 0 0 1 6.852-.055l-.031.406c-.086 1.047-.156 2.082-.148 3.133v.367c.008 1.063.082 2.113.18 3.172a140.06 140.06 0 0 1-4.031-.328c-2.355-.223-4.715-.383-7.082-.492l-.887-.043-2.137-.102-.02 12.883-.008 5.988c-.059 13.805-.059 13.805.48 27.594.035.809.027 1.621.027 2.434h-13.176c0-2.391 0-2.391.066-3.566l.039-.828.066-1.25c.301-5.652.336-11.309.332-16.965v-2.449-4.09-4.703-4.086-2.418-2.266-.824a72.47 72.47 0 0 0-.184-5.293c-2.168-.027-4.316.031-6.48.188l-1.344.094c-1.559.109-3.113.238-4.664.422-.719.082-1.41.113-2.133.102l.07-.402c.371-2.297.285-4.379-.07-6.676zm0 0"/><path d="M475.762 60.32l2.699.078c1.199.098 2.395.105 3.602.102l1.098.004 3.637-.148 1.449-.039.48.004h.371l-.02.328c-.465 8.633-.535 17.246-.516 25.891v3.727c-.016 10.848-.016 10.848.371 21.688l.164 3.379h-13.336l.32-6.594c.164-3.805.188-7.598.188-11.402v-1.547l.004-5.441.004-4.992v-4.352l.004-2.566c.008-4.922-.129-9.824-.359-14.738l-.023-.492-.137-2.887zm62.019 117.102l.352.277c3.297 2.723 5.242 7.129 5.754 11.301.051.809.063 1.609.059 2.414v.332c-.016 4.953-1.695 9.457-5.18 13.02-3.602 3.523-8.508 5.086-13.473 5.043-4.418-.109-8.344-1.434-11.773-4.238l-.395-.32c-2.465-2.09-4.105-5.059-5.027-8.125-.035-.105-.066-.211-.098-.316-.496-1.73-.645-3.48-.637-5.273l.004-.574c.066-5.039 2.004-9.492 5.578-13.043 6.672-6.383 17.852-6.176 24.836-.496zm-20.109 6.082c-1.891 2.242-2.805 5.051-2.777 7.961l.004.531c.063 2.871 1.047 5.695 3.09 7.766.113.113.23.223.352.34l.285.301c1.852 1.82 4.496 2.574 7.023 2.652 3.07-.098 5.84-1.238 7.977-3.473 2.223-2.594 3.043-5.934 2.828-9.293-.289-2.543-1.168-4.816-2.852-6.758l-.312-.367c-1.816-1.969-4.391-3.047-7.047-3.195-3.328-.098-6.277 1.125-8.57 3.535zM286.5 178.199c3.355 3.156 5.086 7.887 5.285 12.41l.02.41c.129 5.23-1.719 10.02-5.301 13.805-3.801 3.613-8.762 5.102-13.93 4.973-4.734-.199-8.836-1.941-12.281-5.191l-.301-.27c-3.203-2.988-4.695-7.719-4.887-11.988-.133-5.164 1.434-9.922 4.977-13.738 7.148-7.383 18.945-6.922 26.418-.41zm-21.035 5.305c-2.367 2.789-2.984 6.109-2.762 9.68.348 3.074 1.813 5.621 4.133 7.617 2.223 1.719 4.973 2.422 7.758 2.195 2.902-.41 5.301-1.637 7.215-3.887 2.078-2.82 2.82-6.312 2.313-9.777-.512-2.957-1.984-5.57-4.379-7.406-4.613-3.039-10.453-2.457-14.277 1.578zM234.426 60.32l.77-.004h.434c.461.004.91.039 1.367.082 1.215.102 2.422.105 3.641.102l1.129.004 3.781-.148c.684-.055 1.367-.051 2.055-.035l-.066 3.824-.02.438-.086 1.781c-.34 6.836-.336 13.684-.332 20.527v2.371c-.004 6.844 0 13.691.352 20.531l.066 1.324.039.797c.059 1.145.047 2.27.047 3.418h-13.176l.246-6.508c.27-6.523.285-13.043.277-19.57v-3.121c.008-6.762-.035-13.512-.32-20.266l-.203-5.547zm0 0"/><path d="M405.223 173.883c16.289 0 16.289 0 19.602 2.41l.32.23c1.281 1.008 2.078 2.422 2.574 3.953l.109.332c.641 2.336.203 4.887-.844 7.027-.602 1.031-1.449 1.805-2.32 2.613l-.48.484.348.125c1.965.848 3.355 2.488 4.156 4.438.926 2.523.648 5.383-.371 7.836-1.277 2.535-3.547 4.191-6.207 5.074-5.391 1.652-11.543.703-16.887.703v-35.227zm7.23 6.273v7.879l2.402.043.746.016c1.648.016 2.922-.23 4.16-1.383.781-.91.992-1.898.934-3.078-.141-1.238-.605-1.871-1.52-2.711-1.402-.871-2.887-.828-4.492-.797l-2.23.031zm0 13.832v8.848l2.633.039.82.02c1.777.02 3.398-.215 4.742-1.508a4.7 4.7 0 0 0 1.105-3.457c-.164-1.336-.664-2.141-1.656-3.035-1.609-1.02-3.086-.984-4.934-.945l-2.711.039zm179.797-20.105c18.18 0 18.18 0 22.816 4.344l.41.379c2.676 2.566 4.25 6.094 4.73 9.754l.055.406c.566 5.129-.41 10.398-3.648 14.5-2.25 2.668-5.262 4.305-8.609 5.168l-.363.098c-4.93 1.176-10.621.578-15.391.578v-35.227zm7.23 6.273v22.68c5.625.016 5.625.016 10.281-2.734l.305-.277c2.227-2.273 2.789-5.602 2.789-8.652-.043-3.133-.969-5.922-3.121-8.23-2.871-2.758-6.465-2.785-10.254-2.785zm189.598-6.273c18.293 0 18.293 0 23.508 4.957 3.305 3.473 4.52 7.883 4.508 12.574v.375c-.012 4.293-1.008 8.402-3.914 11.691l-.41.465c-3.191 3.492-7.734 4.707-12.285 5.164h-11.406v-35.227zm7.23 6.273v22.68c3.957 0 7.27-.027 10.281-2.734 1.945-2 2.941-4.789 3.055-7.562.004-.152.012-.309.02-.473.066-3.332-.695-6.516-3.027-8.98-2.879-2.797-6.465-2.93-10.328-2.93zm-670.66-6.273c16.348 0 16.348 0 19.871 3.313 1.93 2.004 2.68 4.453 2.672 7.184l.008.512c.004 2.586-.871 4.934-2.629 6.848a33.23 33.23 0 0 1-2.41 2.09l4.121 7.727 2.164 4 .27.5.258.484.539.984.27.48.242.434c.172.348.172.348.172.672h-8.035l-3.316-6.746-1.379-2.82-.18-.355-.887-1.758-.324-.645-.152-.301c-.348-.691-.348-.691-.348-1.047h-3.695v13.672h-7.23v-35.227zm7.23 6.273v9.168c3.461.191 3.461.191 6.465-1.156 1.223-1.266 1.465-2.344 1.453-4.062-.09-1.141-.57-1.984-1.332-2.824-.453-.293-.453-.293-.953-.523l-.496-.242c-1.668-.695-3.258-.359-5.137-.359zm8.395-79.152c5.52 4.695 9.055 10.848 9.883 18.098a22.83 22.83 0 0 1 .039.895l.012.34c.223 6.715-1.465 13.887-6.148 18.906-2.437 2.52-5.762 4.023-9.273 4.109-2.602.031-5.066-.082-7.566-.836v-.32l.441-.074c1.91-.34 3.914-.789 5.344-2.18v-.48c-1.551-.051-1.551-.051-3.082.16-.848.176-1.672.195-2.531.199l-.406.004h-.383-.344c-.375-.051-.637-.18-.969-.363.055-.527.121-.762.488-1.148l.398-.32c.578-.453.578-.453.883-1.105-1.141.18-2.133.5-3.184.973-1.687.75-3.492 1.18-5.324.66-1.254-.586-2.559-1.57-3.129-2.863-.195-.809-.137-1.645-.094-2.469l.332.188c1.742.977 3.234 1.773 5.293 1.418.906-.32 1.738-.809 2.57-1.285 3.063-1.695 5.766-1.617 9.082-.891 2.301.504 4.336.746 6.43-.582.949-.633.949-.633 1.801-1.387.199-.195.199-.195.523-.195.063-.141.063-.141.129-.277.207-.395.449-.727.715-1.082 2.082-2.965 2.598-6.461 2.578-10.004v-.363c-.02-5.891-2.113-10.301-6.156-14.492l-.293-.324c-2.828-3.055-7.332-4.766-11.426-4.977-1.715-.043-3.41.438-4.707 1.598-.977 1.07-1.172 1.977-1.145 3.418.227 2.313 1.723 4.266 3.445 5.734 2.133 1.539 4.633 2.406 7.266 2.035 1.191-.219 2.184-.582 3.242-1.164.355-.184.656-.297 1.047-.371-.777 1.559-1.898 2.605-3.535 3.219-1.16.363-2.355.523-3.555.703-3.594.543-6.387 1.617-8.641 4.613-.848 1.156-1.449 2.285-1.781 3.691l.531-.184c1.02-.258 2.023.016 3.004.344 1.199.172 2.027-.207 3.051-.805-.082.445-.172.84-.332 1.266-.23.781-.281 1.359.082 2.102.465.559.977 1.008 1.531 1.469.504.48.637.777.68 1.477l-.012.563-.008.57-.012.438-.32.16-.109-.371c-.297-1-.297-1-.988-1.742-.512-.16-.512-.16-1.074-.168-.734-.172-.883-.48-1.289-1.086-.668-.949-1.617-1.418-2.715-1.73-2.086-.254-3.707.355-5.395 1.559l-.48.32c.184-.977.449-1.859.863-2.762l.164-.371c.809-1.754 1.77-3.43 2.711-5.113 2.207-3.969 1.578-7.133.414-11.344-.59-2.234-.582-4.703.594-6.734.273-.414.563-.797.875-1.18l.273-.348c5.016-5.687 14.887-1.484 19.691 2.266zm0 0"/><path d="M752.602 173.883h7.23l.008 2.113.031 6.918.02 4.191.016 3.66.008 1.934.008 1.824.004.98c.02 1.938.367 3.922 1.66 5.438 1.66 1.605 3.668 1.977 5.891 1.938 1.703-.074 3.336-.703 4.527-1.945 1.551-1.918 1.695-4.285 1.699-6.656l.004-.668.012-1.805.008-1.895.02-3.578.023-4.074.043-8.375h7.23l.016 8.648.008 4.02.008 3.504.004 1.852c.035 10.336.035 10.336-3.73 14.145-3.52 3.148-7.785 3.918-12.371 3.699-3.598-.289-6.824-1.723-9.32-4.34-2.465-2.953-3.109-6.566-3.09-10.309v-.699l.004-1.879.004-1.969.008-3.723.004-4.238.016-8.711zm-383.852 0h7.23l.008 2.094.031 6.867.016 4.16.016 3.629.008 1.918.012 1.813v.973c.023 2.203.449 4.246 1.969 5.91 1.691 1.465 3.813 1.734 5.957 1.621 1.563-.145 3.074-.789 4.152-1.937 1.516-1.895 1.699-3.992 1.703-6.34l.004-.68.008-1.836.012-1.918.02-3.633.02-4.137.047-8.504h7.23l.016 8.934.008 4.148.004 3.621.004 1.914.004 1.809.004.965c-.004 1.879-.16 3.77-.715 5.57l-.105.344c-1.031 3.227-3.145 5.512-6.098 7.078-3.937 1.883-8.977 2.098-13.113.684-3.238-1.199-5.668-3.277-7.156-6.422-1.105-2.453-1.32-4.965-1.312-7.629v-.687l.004-1.863V190.4l.004-3.684.004-4.199.008-8.633zm0 0"/><path d="M703.918 173.883h7.715l1.012 2.926 2.922 8.254 2.91 8.219 2.344 6.668.16.457.637 1.781 1.453 4.105.258.719.344.977.195.555c.137.406.137.406.137.566h-7.391l-1.133-3.309-.523-1.539-.605-1.766-.191-.559-.176-.516-.156-.457c-.109-.383-.109-.383-.109-.863H701.83l-.48 1.77-.574 1.754-.16.48-.5 1.496-.344 1.02-.832 2.488h-7.391l.805-2.562.18-.516.191-.547.203-.582.547-1.555.34-.973 3.691-10.441 1.824-5.152.34-.957 1.609-4.551.754-2.133.359-1.016.496-1.414.148-.418.141-.391.117-.336.625-1.684zm3.695 8.203l-1.445 4.441-.672 2.063-.645 1.988-.25.762-.344 1.063-.199.613c-.16.48-.16.48-.141.973h7.715l-.652-2.504-.191-.586-.207-.621-.215-.652-.559-1.695-.898-2.723-.312-.945-.191-.582-.172-.512-.297-1.082h-.324zm-554.008-8.203h7.875l1.09 2.926.125.367.395 1.195.281.855.75 2.254 1.316 3.977.148.441 2.527 7.484 2.203 6.559 1.191-3.195.16-.473.535-1.582.191-.559 6.758-20.25h8.035l-.824 2.574-.191.527-.203.559-.219.598-.59 1.609-.496 1.355-4.43 12.055-1.934 5.27-1.391 3.789-.336.918-.977 2.66-.297.805-.402 1.094-.117.324-.449 1.09h-7.871l-4.684-12.656-.434-1.176-.215-.582-2.141-5.809-1.98-5.371-.348-.941-1.121-3.051-.41-1.117-.184-.504-1.187-3.102c-.152-.437-.152-.437-.152-.918zm0 0"/><path d="M567.668 175.652c1.563 1.289 2.891 3.219 3.531 5.145v.324l-2.367 1.109-.805.375-1.156.543-.363.172c-.844.387-.844.387-1.277.324-.422-.16-.492-.383-.687-.785-.758-1.437-1.566-2.195-3.145-2.703-1.355-.223-2.711-.172-3.855.641a3.26 3.26 0 0 0-1.023 2.305c.027.93.32 1.633.961 2.313.855.77 1.762 1.293 2.785 1.809l.492.254 2.883 1.383c2.027.934 3.895 2.082 5.473 3.68l.313.305c1.914 1.988 2.191 4.512 2.145 7.129-.098 2.516-1.098 4.848-2.836 6.668-2.789 2.48-6.363 3.316-10.016 3.137-3.09-.223-5.926-1.477-8.086-3.727-.906-1.055-2.57-3.184-2.57-4.664l6.105-2.895c.094.148.184.301.277.453 1.176 1.898 2.164 3.125 4.375 3.828 1.527.285 2.977.094 4.316-.684.641-.695 1.023-1.535 1.066-2.492-.148-1.293-.715-2.184-1.68-3.035-1.469-1.047-3.102-1.793-4.727-2.559-3.578-1.691-6.887-3.656-8.305-7.586-.727-2.676-.477-5.691.77-8.172 1.473-2.461 3.707-3.941 6.445-4.691 3.898-.836 7.699-.297 10.961 2.098zm-252.102.161c1.57 1.371 2.633 3.043 3.375 4.984v.324l-2.379 1.098-.805.375-1.164.535-.363.172c-.859.395-.859.395-1.395.395-.25-.383-.25-.383-.512-.895-.656-1.172-1.469-2.156-2.789-2.574-1.316-.234-2.758-.285-3.961.355-.687.512-1.09 1.148-1.254 1.984-.086 1.035.051 1.715.641 2.574.91.977 2.008 1.563 3.184 2.152l.535.273 3.211 1.547c1.379.637 2.613 1.406 3.836 2.301l.348.25c1.941 1.512 3.008 3.789 3.305 6.18.262 2.871-.449 5.738-2.207 8.047-1.973 2.375-5.016 3.582-8.031 3.859-3.812.223-7.109-.535-10.059-3.094-1.363-1.281-2.461-2.867-3.117-4.625v-.645l1.988-1.004.676-.34.977-.492.297-.152c.707-.355 1.426-.637 2.168-.906l.207.418c1.02 1.988 2.098 3.145 4.281 3.867 1.438.25 2.93.191 4.188-.586.664-.574 1.066-1.258 1.164-2.133.055-1.133-.18-1.945-.922-2.812a8.35 8.35 0 0 0-2.172-1.609l-.371-.203c-1.016-.547-2.059-1.035-3.102-1.527-3.273-1.539-6.352-3.387-7.844-6.855-.937-2.672-.844-5.652.348-8.227 1.223-2.492 3.078-4.043 5.691-4.969 4.051-1.348 8.707-.809 12.027 1.957zm-226.488-.348c1.766 1.469 2.969 3.184 3.793 5.332v.324l-2.375 1.098-.809.375-1.164.535-.363.172c-.859.395-.859.395-1.395.395-.254-.391-.254-.391-.523-.906-.477-.852-.902-1.465-1.727-1.992l-.309-.199c-1.211-.656-2.676-.648-3.996-.336-.898.348-1.32.836-1.801 1.664-.293.871-.297 1.742.078 2.594.781 1.324 2.094 2.023 3.426 2.691l.488.254 3.086 1.488c1.988.922 3.734 2.027 5.293 3.586l.316.313c1.75 1.848 2.262 4.129 2.254 6.605-.16 2.941-1.203 5.465-3.305 7.531-2.809 2.371-6.469 2.953-10.031 2.762-2.406-.203-4.805-1.074-6.586-2.734l-.43-.379c-1.344-1.254-2.527-2.836-3.105-4.605v-.645l2.145-1.082.727-.367 1.051-.527.324-.168a11.94 11.94 0 0 1 1.859-.75c.039.098.082.195.125.297.875 1.918 2.082 3.113 4.051 3.887 1.324.43 2.918.305 4.168-.281.672-.41 1.012-.902 1.348-1.621.223-1.043.25-1.973-.293-2.922-1.348-1.836-3.488-2.715-5.492-3.648-3.598-1.68-7.059-3.547-8.566-7.453-.902-2.703-.66-5.672.512-8.254 1.355-2.445 3.418-3.988 6.074-4.773 3.773-1.047 7.988-.699 11.152 1.742zm595.078.348c1.57 1.371 2.629 3.043 3.375 4.984v.324l-2.379 1.098-.809.375-1.16.535-.367.172c-.855.395-.855.395-1.391.395-.25-.383-.25-.383-.512-.895-.66-1.172-1.469-2.156-2.789-2.574-1.316-.234-2.758-.285-3.961.355a3.08 3.08 0 0 0-1.254 1.984c-.086 1.035.051 1.715.641 2.574.91.977 2.004 1.563 3.184 2.152l.535.273 3.242 1.566a17.16 17.16 0 0 1 4.93 3.406l.316.313c1.699 1.797 2.305 4.141 2.27 6.563-.129 3.051-1.305 5.664-3.551 7.766-3.023 2.305-6.766 2.938-10.48 2.504-2.293-.336-4.371-1.242-6.07-2.828l-.367-.324c-1.32-1.227-2.371-2.809-3.004-4.5v-.645l1.988-1.004.676-.34.977-.492.297-.152c.707-.355 1.422-.637 2.168-.906.039.098.082.195.125.297.875 1.918 2.082 3.113 4.051 3.887 1.324.43 2.918.301 4.168-.281.742-.457 1.246-1.121 1.457-1.973.125-1.125-.004-1.957-.645-2.895-.699-.82-1.461-1.387-2.41-1.891l-.371-.203c-1.016-.547-2.059-1.035-3.102-1.527-3.273-1.539-6.352-3.387-7.844-6.855-.937-2.672-.844-5.652.348-8.227 1.223-2.492 3.078-4.043 5.688-4.969 4.055-1.348 8.711-.809 12.031 1.957zm0 0"/><path d="M340.148 173.883c16.484 0 16.484 0 19.91 3.184 2.191 2.293 2.941 5.305 2.906 8.398-.168 3.09-1.328 5.691-3.574 7.828-3.523 2.973-7.465 2.785-12.012 2.785v13.031h-7.23v-35.227zm7.23 6.273v9.648c3.707.203 3.707.203 6.75-1.445 1.133-1.266 1.359-2.383 1.336-4.07-.105-1.219-.625-2.152-1.496-3.008-2.113-1.434-3.871-1.125-6.59-1.125zm-112.472-3.699l-.582 1.895-.195.641-1.309 3.898-.445-.25c-3.422-1.887-6.906-3.137-10.859-2.191-2.828.906-5.059 2.586-6.5 5.219-1.535 3.191-1.797 6.766-.66 10.129 1.141 2.887 2.949 4.969 5.758 6.297 3.309 1.297 6.938.844 10.133-.547.652-.316 1.285-.664 1.918-1.016.492-.27.492-.27.977-.43l.832 2.43.285.824.402 1.191.133.371c.215.641.367 1.133.113 1.777-.34.258-.641.449-1.012.645l-.309.168c-4.742 2.531-10.285 2.949-15.418 1.41-4.27-1.379-8.035-4.312-10.098-8.336a20.64 20.64 0 0 1-.953-15.836c.738-2.02 1.797-3.773 3.207-5.395l.23-.297c2.695-3.391 7.172-5.168 11.336-5.754 4.574-.512 9.277.395 13.016 3.156zm266.242-1.027l.328.184c.949.551.949.551 1.117 1.164a13.3 13.3 0 0 1-.391 1.363l-.133.398-.422 1.254-.281.852-.703 2.086c-.602 0-.812-.184-1.316-.504-3.059-1.82-6.605-2.547-10.105-1.777-2.652.73-4.777 2.395-6.254 4.691-1.727 3.078-2 6.598-1.121 9.973.867 2.871 2.523 5.09 5.141 6.543 3.016 1.504 6.328 1.508 9.492.496a17.1 17.1 0 0 0 3.469-1.656c.227-.141.461-.27.695-.395.32.16.32.16.535.738l.238.773.129.41.402 1.305.277.883.668 2.164c-3.941 3.082-8.992 3.859-13.867 3.262-3.582-.527-6.914-1.934-9.59-4.387l-.445-.402c-3.031-2.863-5-7.09-5.207-11.266-.098-5.758.809-10.672 4.945-15.035 5.707-5.836 15.289-7.043 22.398-3.117zm125.645-1.547h18.156v6.594h-10.926v7.559h9.32v6.438h-9.32v8.203h11.41v6.434h-18.641v-35.227zm-526.852 0h18.156v6.594h-11.086v7.559h9.477v6.438h-9.477v8.203h11.406v6.434H99.941v-35.227zm64.75-122.41c0 .566-.059.602-.43.996-4.039 4.457-7.926 9.977-7.805 16.25.309 4.816 2.602 9.055 4.957 13.164 6.848 11.949 10.133 24.492 8.742 38.273h-.324l-.051-.336c-2.168-14.066-8.148-27.09-19.059-42.66-.703-.906-1.348-1.844-1.988-2.797l-.285-.422c-1.191-1.793-2.145-3.527-1.914-5.738.801-3.59 4.652-6.508 7.391-8.687l.492-.395c2.359-1.871 4.746-3.699 7.215-5.422 1.035-.723 2.047-1.477 3.059-2.227zm564.614 122.41h7.23v28.629h11.41v6.598h-18.641v-35.227zm0 0"/><path d="M435.59 173.883h7.23v28.629h11.41v6.598h-18.64v-35.227zm-194.094 0h7.23v35.227h-7.23v-35.227zm-49.168 0h7.23v35.227h-7.23v-35.227zm267.848 0h7.066v35.227h-7.066v-35.227zm-77.285-9.168h7.391c-.156.621-.32.926-.672 1.449l-.32.477-.707 1.023c-.551.797-1.059 1.547-1.418 2.453-.371.859-.68 1.559-1.543 1.996-1.961.434-4.125.172-6.105 0l3.375-7.398zm0 0"/></svg>